M48
; DRILL file {KiCad (5.1.5)-3} date 21/11/2020 23:04:22
; FORMAT={2:4/ absolute / inch / suppress leading zeros}
; #@! TF.CreationDate,2020-11-21T23:04:22+01:00
; #@! TF.GenerationSoftware,Kicad,Pcbnew,(5.1.5)-3
FMAT,2
INCH,TZ
T1C0.0157
T2C0.0315
T3C0.0354
T4C0.0394
%
G90
G05
T1
X49500Y-45750
X50500Y-45750
T2
X44750Y-43250
X48750Y-43250
X50000Y-43750
X50000Y-46750
X51000Y-43750
X51000Y-46750
X52000Y-43750
X52000Y-46750
X53000Y-43750
X53000Y-46750
X54000Y-43750
X54000Y-46750
X55000Y-43750
X55000Y-46750
X56000Y-43750
X56000Y-46750
X44750Y-47250
X48750Y-47250
T3
X45750Y-45250
X46750Y-45250
X47750Y-45250
T4
X58500Y-44250
X58500Y-45250
X58500Y-46250
X57500Y-44250
X57500Y-45250
X57500Y-46250
T0
M30
