G04 #@! TF.GenerationSoftware,KiCad,Pcbnew,(5.1.5)-3*
G04 #@! TF.CreationDate,2020-10-17T23:47:23+02:00*
G04 #@! TF.ProjectId,C64 IRQ LED,43363420-4952-4512-904c-45442e6b6963,rev?*
G04 #@! TF.SameCoordinates,Original*
G04 #@! TF.FileFunction,Copper,L2,Bot*
G04 #@! TF.FilePolarity,Positive*
%FSLAX46Y46*%
G04 Gerber Fmt 4.6, Leading zero omitted, Abs format (unit mm)*
G04 Created by KiCad (PCBNEW (5.1.5)-3) date 2020-10-17 23:47:23*
%MOMM*%
%LPD*%
G04 APERTURE LIST*
%ADD10C,1.800000*%
%ADD11R,1.800000X1.800000*%
%ADD12O,1.700000X1.700000*%
%ADD13R,1.700000X1.700000*%
%ADD14O,1.600000X1.600000*%
%ADD15C,1.600000*%
%ADD16O,1.600000X2.400000*%
%ADD17R,1.600000X2.400000*%
%ADD18C,0.800000*%
%ADD19C,0.250000*%
%ADD20C,0.254000*%
G04 APERTURE END LIST*
D10*
X116205000Y-114935000D03*
X118745000Y-114935000D03*
D11*
X121285000Y-114935000D03*
D12*
X148590000Y-117475000D03*
X148590000Y-114935000D03*
D13*
X148590000Y-112395000D03*
D14*
X113665000Y-120015000D03*
D15*
X123825000Y-120015000D03*
X123825000Y-109855000D03*
D14*
X113665000Y-109855000D03*
D16*
X127000000Y-111125000D03*
X142240000Y-118745000D03*
X129540000Y-111125000D03*
X139700000Y-118745000D03*
X132080000Y-111125000D03*
X137160000Y-118745000D03*
X134620000Y-111125000D03*
X134620000Y-118745000D03*
X137160000Y-111125000D03*
X132080000Y-118745000D03*
X139700000Y-111125000D03*
X129540000Y-118745000D03*
X142240000Y-111125000D03*
D17*
X127000000Y-118745000D03*
D12*
X146050000Y-117475000D03*
X146050000Y-114935000D03*
D13*
X146050000Y-112395000D03*
D18*
X125730000Y-116205000D03*
X128270000Y-116205000D03*
D19*
X125730000Y-116205000D02*
X128270000Y-116205000D01*
D20*
G36*
X122445147Y-109436426D02*
G01*
X122390000Y-109713665D01*
X122390000Y-109996335D01*
X122445147Y-110273574D01*
X122553320Y-110534727D01*
X122710363Y-110769759D01*
X122910241Y-110969637D01*
X123145273Y-111126680D01*
X123406426Y-111234853D01*
X123683665Y-111290000D01*
X123966335Y-111290000D01*
X124243574Y-111234853D01*
X124504727Y-111126680D01*
X124739759Y-110969637D01*
X124939637Y-110769759D01*
X125016644Y-110654509D01*
X125565000Y-110654509D01*
X125565000Y-111595492D01*
X125585764Y-111806309D01*
X125667818Y-112076808D01*
X125801068Y-112326101D01*
X125980393Y-112544608D01*
X126198900Y-112723932D01*
X126448193Y-112857182D01*
X126718692Y-112939236D01*
X127000000Y-112966943D01*
X127281309Y-112939236D01*
X127551808Y-112857182D01*
X127801101Y-112723932D01*
X128019608Y-112544608D01*
X128198932Y-112326101D01*
X128267265Y-112198259D01*
X128417399Y-112427839D01*
X128615105Y-112629500D01*
X128848354Y-112788715D01*
X129108182Y-112899367D01*
X129190961Y-112916904D01*
X129413000Y-112794915D01*
X129413000Y-111252000D01*
X129393000Y-111252000D01*
X129393000Y-110998000D01*
X129413000Y-110998000D01*
X129413000Y-109455085D01*
X129667000Y-109455085D01*
X129667000Y-110998000D01*
X129687000Y-110998000D01*
X129687000Y-111252000D01*
X129667000Y-111252000D01*
X129667000Y-112794915D01*
X129889039Y-112916904D01*
X129971818Y-112899367D01*
X130231646Y-112788715D01*
X130464895Y-112629500D01*
X130662601Y-112427839D01*
X130812735Y-112198259D01*
X130881068Y-112326101D01*
X131060393Y-112544608D01*
X131278900Y-112723932D01*
X131528193Y-112857182D01*
X131798692Y-112939236D01*
X132080000Y-112966943D01*
X132361309Y-112939236D01*
X132631808Y-112857182D01*
X132881101Y-112723932D01*
X133099608Y-112544608D01*
X133278932Y-112326101D01*
X133347265Y-112198259D01*
X133497399Y-112427839D01*
X133695105Y-112629500D01*
X133928354Y-112788715D01*
X134188182Y-112899367D01*
X134270961Y-112916904D01*
X134493000Y-112794915D01*
X134493000Y-111252000D01*
X134473000Y-111252000D01*
X134473000Y-110998000D01*
X134493000Y-110998000D01*
X134493000Y-109455085D01*
X134747000Y-109455085D01*
X134747000Y-110998000D01*
X134767000Y-110998000D01*
X134767000Y-111252000D01*
X134747000Y-111252000D01*
X134747000Y-112794915D01*
X134969039Y-112916904D01*
X135051818Y-112899367D01*
X135311646Y-112788715D01*
X135544895Y-112629500D01*
X135742601Y-112427839D01*
X135892735Y-112198259D01*
X135961068Y-112326101D01*
X136140393Y-112544608D01*
X136358900Y-112723932D01*
X136608193Y-112857182D01*
X136878692Y-112939236D01*
X137160000Y-112966943D01*
X137441309Y-112939236D01*
X137711808Y-112857182D01*
X137961101Y-112723932D01*
X138179608Y-112544608D01*
X138358932Y-112326101D01*
X138427265Y-112198259D01*
X138577399Y-112427839D01*
X138775105Y-112629500D01*
X139008354Y-112788715D01*
X139268182Y-112899367D01*
X139350961Y-112916904D01*
X139573000Y-112794915D01*
X139573000Y-111252000D01*
X139553000Y-111252000D01*
X139553000Y-110998000D01*
X139573000Y-110998000D01*
X139573000Y-109455085D01*
X139827000Y-109455085D01*
X139827000Y-110998000D01*
X139847000Y-110998000D01*
X139847000Y-111252000D01*
X139827000Y-111252000D01*
X139827000Y-112794915D01*
X140049039Y-112916904D01*
X140131818Y-112899367D01*
X140391646Y-112788715D01*
X140624895Y-112629500D01*
X140822601Y-112427839D01*
X140972735Y-112198259D01*
X141041068Y-112326101D01*
X141220393Y-112544608D01*
X141438900Y-112723932D01*
X141688193Y-112857182D01*
X141958692Y-112939236D01*
X142240000Y-112966943D01*
X142521309Y-112939236D01*
X142791808Y-112857182D01*
X143041101Y-112723932D01*
X143259608Y-112544608D01*
X143438932Y-112326101D01*
X143572182Y-112076808D01*
X143654236Y-111806309D01*
X143675000Y-111595491D01*
X143675000Y-111545000D01*
X144561928Y-111545000D01*
X144561928Y-113245000D01*
X144574188Y-113369482D01*
X144610498Y-113489180D01*
X144669463Y-113599494D01*
X144748815Y-113696185D01*
X144845506Y-113775537D01*
X144955820Y-113834502D01*
X145028380Y-113856513D01*
X144896525Y-113988368D01*
X144734010Y-114231589D01*
X144622068Y-114501842D01*
X144565000Y-114788740D01*
X144565000Y-115081260D01*
X144622068Y-115368158D01*
X144734010Y-115638411D01*
X144896525Y-115881632D01*
X145103368Y-116088475D01*
X145285534Y-116210195D01*
X145168645Y-116279822D01*
X144952412Y-116474731D01*
X144778359Y-116708080D01*
X144653175Y-116970901D01*
X144608524Y-117118110D01*
X144729845Y-117348000D01*
X145923000Y-117348000D01*
X145923000Y-117328000D01*
X146177000Y-117328000D01*
X146177000Y-117348000D01*
X146197000Y-117348000D01*
X146197000Y-117602000D01*
X146177000Y-117602000D01*
X146177000Y-118795814D01*
X146406891Y-118916481D01*
X146681252Y-118819157D01*
X146931355Y-118670178D01*
X147147588Y-118475269D01*
X147318900Y-118245594D01*
X147436525Y-118421632D01*
X147643368Y-118628475D01*
X147886589Y-118790990D01*
X148156842Y-118902932D01*
X148443740Y-118960000D01*
X148736260Y-118960000D01*
X149023158Y-118902932D01*
X149293411Y-118790990D01*
X149536632Y-118628475D01*
X149743475Y-118421632D01*
X149905990Y-118178411D01*
X150017932Y-117908158D01*
X150075000Y-117621260D01*
X150075000Y-117328740D01*
X150017932Y-117041842D01*
X149905990Y-116771589D01*
X149743475Y-116528368D01*
X149536632Y-116321525D01*
X149354466Y-116199805D01*
X149471355Y-116130178D01*
X149687588Y-115935269D01*
X149861641Y-115701920D01*
X149986825Y-115439099D01*
X150031476Y-115291890D01*
X149910155Y-115062000D01*
X148717000Y-115062000D01*
X148717000Y-115082000D01*
X148463000Y-115082000D01*
X148463000Y-115062000D01*
X148443000Y-115062000D01*
X148443000Y-114808000D01*
X148463000Y-114808000D01*
X148463000Y-114788000D01*
X148717000Y-114788000D01*
X148717000Y-114808000D01*
X149910155Y-114808000D01*
X150031476Y-114578110D01*
X149986825Y-114430901D01*
X149861641Y-114168080D01*
X149687588Y-113934731D01*
X149603534Y-113858966D01*
X149684180Y-113834502D01*
X149794494Y-113775537D01*
X149891185Y-113696185D01*
X149970537Y-113599494D01*
X150029502Y-113489180D01*
X150065812Y-113369482D01*
X150078072Y-113245000D01*
X150078072Y-111545000D01*
X150065812Y-111420518D01*
X150029502Y-111300820D01*
X149970537Y-111190506D01*
X149891185Y-111093815D01*
X149794494Y-111014463D01*
X149684180Y-110955498D01*
X149564482Y-110919188D01*
X149440000Y-110906928D01*
X147740000Y-110906928D01*
X147615518Y-110919188D01*
X147495820Y-110955498D01*
X147385506Y-111014463D01*
X147320000Y-111068222D01*
X147254494Y-111014463D01*
X147144180Y-110955498D01*
X147024482Y-110919188D01*
X146900000Y-110906928D01*
X145200000Y-110906928D01*
X145075518Y-110919188D01*
X144955820Y-110955498D01*
X144845506Y-111014463D01*
X144748815Y-111093815D01*
X144669463Y-111190506D01*
X144610498Y-111300820D01*
X144574188Y-111420518D01*
X144561928Y-111545000D01*
X143675000Y-111545000D01*
X143675000Y-110654508D01*
X143654236Y-110443691D01*
X143572182Y-110173192D01*
X143438932Y-109923899D01*
X143259607Y-109705392D01*
X143041100Y-109526068D01*
X142791807Y-109392818D01*
X142521308Y-109310764D01*
X142240000Y-109283057D01*
X141958691Y-109310764D01*
X141688192Y-109392818D01*
X141438899Y-109526068D01*
X141220392Y-109705393D01*
X141041068Y-109923900D01*
X140972735Y-110051742D01*
X140822601Y-109822161D01*
X140624895Y-109620500D01*
X140391646Y-109461285D01*
X140131818Y-109350633D01*
X140049039Y-109333096D01*
X139827000Y-109455085D01*
X139573000Y-109455085D01*
X139350961Y-109333096D01*
X139268182Y-109350633D01*
X139008354Y-109461285D01*
X138775105Y-109620500D01*
X138577399Y-109822161D01*
X138427265Y-110051741D01*
X138358932Y-109923899D01*
X138179607Y-109705392D01*
X137961100Y-109526068D01*
X137711807Y-109392818D01*
X137441308Y-109310764D01*
X137160000Y-109283057D01*
X136878691Y-109310764D01*
X136608192Y-109392818D01*
X136358899Y-109526068D01*
X136140392Y-109705393D01*
X135961068Y-109923900D01*
X135892735Y-110051742D01*
X135742601Y-109822161D01*
X135544895Y-109620500D01*
X135311646Y-109461285D01*
X135051818Y-109350633D01*
X134969039Y-109333096D01*
X134747000Y-109455085D01*
X134493000Y-109455085D01*
X134270961Y-109333096D01*
X134188182Y-109350633D01*
X133928354Y-109461285D01*
X133695105Y-109620500D01*
X133497399Y-109822161D01*
X133347265Y-110051741D01*
X133278932Y-109923899D01*
X133099607Y-109705392D01*
X132881100Y-109526068D01*
X132631807Y-109392818D01*
X132361308Y-109310764D01*
X132080000Y-109283057D01*
X131798691Y-109310764D01*
X131528192Y-109392818D01*
X131278899Y-109526068D01*
X131060392Y-109705393D01*
X130881068Y-109923900D01*
X130812735Y-110051742D01*
X130662601Y-109822161D01*
X130464895Y-109620500D01*
X130231646Y-109461285D01*
X129971818Y-109350633D01*
X129889039Y-109333096D01*
X129667000Y-109455085D01*
X129413000Y-109455085D01*
X129190961Y-109333096D01*
X129108182Y-109350633D01*
X128848354Y-109461285D01*
X128615105Y-109620500D01*
X128417399Y-109822161D01*
X128267265Y-110051741D01*
X128198932Y-109923899D01*
X128019607Y-109705392D01*
X127801100Y-109526068D01*
X127551807Y-109392818D01*
X127281308Y-109310764D01*
X127000000Y-109283057D01*
X126718691Y-109310764D01*
X126448192Y-109392818D01*
X126198899Y-109526068D01*
X125980392Y-109705393D01*
X125801068Y-109923900D01*
X125667818Y-110173193D01*
X125585764Y-110443692D01*
X125565000Y-110654509D01*
X125016644Y-110654509D01*
X125096680Y-110534727D01*
X125204853Y-110273574D01*
X125260000Y-109996335D01*
X125260000Y-109713665D01*
X125204853Y-109436426D01*
X125125562Y-109245000D01*
X150462725Y-109245000D01*
X150469513Y-109245666D01*
X150470000Y-109250301D01*
X150470001Y-120617715D01*
X150469335Y-120624513D01*
X150464699Y-120625000D01*
X125125562Y-120625000D01*
X125204853Y-120433574D01*
X125260000Y-120156335D01*
X125260000Y-119873665D01*
X125204853Y-119596426D01*
X125096680Y-119335273D01*
X124939637Y-119100241D01*
X124739759Y-118900363D01*
X124504727Y-118743320D01*
X124243574Y-118635147D01*
X123966335Y-118580000D01*
X123683665Y-118580000D01*
X123406426Y-118635147D01*
X123145273Y-118743320D01*
X122910241Y-118900363D01*
X122710363Y-119100241D01*
X122553320Y-119335273D01*
X122445147Y-119596426D01*
X122390000Y-119873665D01*
X122390000Y-120156335D01*
X122445147Y-120433574D01*
X122524438Y-120625000D01*
X114965562Y-120625000D01*
X115044853Y-120433574D01*
X115100000Y-120156335D01*
X115100000Y-119873665D01*
X115044853Y-119596426D01*
X114936680Y-119335273D01*
X114779637Y-119100241D01*
X114579759Y-118900363D01*
X114344727Y-118743320D01*
X114083574Y-118635147D01*
X113806335Y-118580000D01*
X113523665Y-118580000D01*
X113246426Y-118635147D01*
X113055000Y-118714438D01*
X113055000Y-114783816D01*
X114670000Y-114783816D01*
X114670000Y-115086184D01*
X114728989Y-115382743D01*
X114844701Y-115662095D01*
X115012688Y-115913505D01*
X115226495Y-116127312D01*
X115477905Y-116295299D01*
X115757257Y-116411011D01*
X116053816Y-116470000D01*
X116356184Y-116470000D01*
X116652743Y-116411011D01*
X116932095Y-116295299D01*
X117183505Y-116127312D01*
X117397312Y-115913505D01*
X117499951Y-115759895D01*
X117680920Y-115819475D01*
X118565395Y-114935000D01*
X117680920Y-114050525D01*
X117499951Y-114110105D01*
X117397312Y-113956495D01*
X117311737Y-113870920D01*
X117860525Y-113870920D01*
X118745000Y-114755395D01*
X118759143Y-114741253D01*
X118938748Y-114920858D01*
X118924605Y-114935000D01*
X118938748Y-114949143D01*
X118759143Y-115128748D01*
X118745000Y-115114605D01*
X117860525Y-115999080D01*
X117944208Y-116253261D01*
X118216775Y-116384158D01*
X118509642Y-116459365D01*
X118811553Y-116475991D01*
X119110907Y-116433397D01*
X119396199Y-116333222D01*
X119545792Y-116253261D01*
X119629474Y-115999082D01*
X119745422Y-116115030D01*
X119792187Y-116068265D01*
X119795498Y-116079180D01*
X119854463Y-116189494D01*
X119933815Y-116286185D01*
X120030506Y-116365537D01*
X120140820Y-116424502D01*
X120260518Y-116460812D01*
X120385000Y-116473072D01*
X122185000Y-116473072D01*
X122309482Y-116460812D01*
X122429180Y-116424502D01*
X122539494Y-116365537D01*
X122636185Y-116286185D01*
X122715537Y-116189494D01*
X122761737Y-116103061D01*
X124695000Y-116103061D01*
X124695000Y-116306939D01*
X124734774Y-116506898D01*
X124812795Y-116695256D01*
X124926063Y-116864774D01*
X125070226Y-117008937D01*
X125239744Y-117122205D01*
X125428102Y-117200226D01*
X125628061Y-117240000D01*
X125643007Y-117240000D01*
X125610498Y-117300820D01*
X125574188Y-117420518D01*
X125561928Y-117545000D01*
X125561928Y-119945000D01*
X125574188Y-120069482D01*
X125610498Y-120189180D01*
X125669463Y-120299494D01*
X125748815Y-120396185D01*
X125845506Y-120475537D01*
X125955820Y-120534502D01*
X126075518Y-120570812D01*
X126200000Y-120583072D01*
X127800000Y-120583072D01*
X127924482Y-120570812D01*
X128044180Y-120534502D01*
X128154494Y-120475537D01*
X128251185Y-120396185D01*
X128330537Y-120299494D01*
X128389502Y-120189180D01*
X128425812Y-120069482D01*
X128427581Y-120051517D01*
X128520393Y-120164608D01*
X128738900Y-120343932D01*
X128988193Y-120477182D01*
X129258692Y-120559236D01*
X129540000Y-120586943D01*
X129821309Y-120559236D01*
X130091808Y-120477182D01*
X130341101Y-120343932D01*
X130559608Y-120164608D01*
X130738932Y-119946101D01*
X130810000Y-119813142D01*
X130881068Y-119946101D01*
X131060393Y-120164608D01*
X131278900Y-120343932D01*
X131528193Y-120477182D01*
X131798692Y-120559236D01*
X132080000Y-120586943D01*
X132361309Y-120559236D01*
X132631808Y-120477182D01*
X132881101Y-120343932D01*
X133099608Y-120164608D01*
X133278932Y-119946101D01*
X133350000Y-119813142D01*
X133421068Y-119946101D01*
X133600393Y-120164608D01*
X133818900Y-120343932D01*
X134068193Y-120477182D01*
X134338692Y-120559236D01*
X134620000Y-120586943D01*
X134901309Y-120559236D01*
X135171808Y-120477182D01*
X135421101Y-120343932D01*
X135639608Y-120164608D01*
X135818932Y-119946101D01*
X135887265Y-119818259D01*
X136037399Y-120047839D01*
X136235105Y-120249500D01*
X136468354Y-120408715D01*
X136728182Y-120519367D01*
X136810961Y-120536904D01*
X137033000Y-120414915D01*
X137033000Y-118872000D01*
X137013000Y-118872000D01*
X137013000Y-118618000D01*
X137033000Y-118618000D01*
X137033000Y-117075085D01*
X137287000Y-117075085D01*
X137287000Y-118618000D01*
X137307000Y-118618000D01*
X137307000Y-118872000D01*
X137287000Y-118872000D01*
X137287000Y-120414915D01*
X137509039Y-120536904D01*
X137591818Y-120519367D01*
X137851646Y-120408715D01*
X138084895Y-120249500D01*
X138282601Y-120047839D01*
X138432735Y-119818259D01*
X138501068Y-119946101D01*
X138680393Y-120164608D01*
X138898900Y-120343932D01*
X139148193Y-120477182D01*
X139418692Y-120559236D01*
X139700000Y-120586943D01*
X139981309Y-120559236D01*
X140251808Y-120477182D01*
X140501101Y-120343932D01*
X140719608Y-120164608D01*
X140898932Y-119946101D01*
X140967265Y-119818259D01*
X141117399Y-120047839D01*
X141315105Y-120249500D01*
X141548354Y-120408715D01*
X141808182Y-120519367D01*
X141890961Y-120536904D01*
X142113000Y-120414915D01*
X142113000Y-118872000D01*
X142367000Y-118872000D01*
X142367000Y-120414915D01*
X142589039Y-120536904D01*
X142671818Y-120519367D01*
X142931646Y-120408715D01*
X143164895Y-120249500D01*
X143362601Y-120047839D01*
X143517166Y-119811483D01*
X143622650Y-119549514D01*
X143675000Y-119272000D01*
X143675000Y-118872000D01*
X142367000Y-118872000D01*
X142113000Y-118872000D01*
X142093000Y-118872000D01*
X142093000Y-118618000D01*
X142113000Y-118618000D01*
X142113000Y-117075085D01*
X142367000Y-117075085D01*
X142367000Y-118618000D01*
X143675000Y-118618000D01*
X143675000Y-118218000D01*
X143622650Y-117940486D01*
X143578923Y-117831890D01*
X144608524Y-117831890D01*
X144653175Y-117979099D01*
X144778359Y-118241920D01*
X144952412Y-118475269D01*
X145168645Y-118670178D01*
X145418748Y-118819157D01*
X145693109Y-118916481D01*
X145923000Y-118795814D01*
X145923000Y-117602000D01*
X144729845Y-117602000D01*
X144608524Y-117831890D01*
X143578923Y-117831890D01*
X143517166Y-117678517D01*
X143362601Y-117442161D01*
X143164895Y-117240500D01*
X142931646Y-117081285D01*
X142671818Y-116970633D01*
X142589039Y-116953096D01*
X142367000Y-117075085D01*
X142113000Y-117075085D01*
X141890961Y-116953096D01*
X141808182Y-116970633D01*
X141548354Y-117081285D01*
X141315105Y-117240500D01*
X141117399Y-117442161D01*
X140967265Y-117671741D01*
X140898932Y-117543899D01*
X140719607Y-117325392D01*
X140501100Y-117146068D01*
X140251807Y-117012818D01*
X139981308Y-116930764D01*
X139700000Y-116903057D01*
X139418691Y-116930764D01*
X139148192Y-117012818D01*
X138898899Y-117146068D01*
X138680392Y-117325393D01*
X138501068Y-117543900D01*
X138432735Y-117671742D01*
X138282601Y-117442161D01*
X138084895Y-117240500D01*
X137851646Y-117081285D01*
X137591818Y-116970633D01*
X137509039Y-116953096D01*
X137287000Y-117075085D01*
X137033000Y-117075085D01*
X136810961Y-116953096D01*
X136728182Y-116970633D01*
X136468354Y-117081285D01*
X136235105Y-117240500D01*
X136037399Y-117442161D01*
X135887265Y-117671741D01*
X135818932Y-117543899D01*
X135639607Y-117325392D01*
X135421100Y-117146068D01*
X135171807Y-117012818D01*
X134901308Y-116930764D01*
X134620000Y-116903057D01*
X134338691Y-116930764D01*
X134068192Y-117012818D01*
X133818899Y-117146068D01*
X133600392Y-117325393D01*
X133421068Y-117543900D01*
X133350000Y-117676858D01*
X133278932Y-117543899D01*
X133099607Y-117325392D01*
X132881100Y-117146068D01*
X132631807Y-117012818D01*
X132361308Y-116930764D01*
X132080000Y-116903057D01*
X131798691Y-116930764D01*
X131528192Y-117012818D01*
X131278899Y-117146068D01*
X131060392Y-117325393D01*
X130881068Y-117543900D01*
X130810000Y-117676858D01*
X130738932Y-117543899D01*
X130559607Y-117325392D01*
X130341100Y-117146068D01*
X130091807Y-117012818D01*
X129821308Y-116930764D01*
X129540000Y-116903057D01*
X129258691Y-116930764D01*
X128988192Y-117012818D01*
X128738899Y-117146068D01*
X128520392Y-117325393D01*
X128427581Y-117438483D01*
X128425812Y-117420518D01*
X128389502Y-117300820D01*
X128356993Y-117240000D01*
X128371939Y-117240000D01*
X128571898Y-117200226D01*
X128760256Y-117122205D01*
X128929774Y-117008937D01*
X129073937Y-116864774D01*
X129187205Y-116695256D01*
X129265226Y-116506898D01*
X129305000Y-116306939D01*
X129305000Y-116103061D01*
X129265226Y-115903102D01*
X129187205Y-115714744D01*
X129073937Y-115545226D01*
X128929774Y-115401063D01*
X128760256Y-115287795D01*
X128571898Y-115209774D01*
X128371939Y-115170000D01*
X128168061Y-115170000D01*
X127968102Y-115209774D01*
X127779744Y-115287795D01*
X127610226Y-115401063D01*
X127566289Y-115445000D01*
X126433711Y-115445000D01*
X126389774Y-115401063D01*
X126220256Y-115287795D01*
X126031898Y-115209774D01*
X125831939Y-115170000D01*
X125628061Y-115170000D01*
X125428102Y-115209774D01*
X125239744Y-115287795D01*
X125070226Y-115401063D01*
X124926063Y-115545226D01*
X124812795Y-115714744D01*
X124734774Y-115903102D01*
X124695000Y-116103061D01*
X122761737Y-116103061D01*
X122774502Y-116079180D01*
X122810812Y-115959482D01*
X122823072Y-115835000D01*
X122823072Y-114035000D01*
X122810812Y-113910518D01*
X122774502Y-113790820D01*
X122715537Y-113680506D01*
X122636185Y-113583815D01*
X122539494Y-113504463D01*
X122429180Y-113445498D01*
X122309482Y-113409188D01*
X122185000Y-113396928D01*
X120385000Y-113396928D01*
X120260518Y-113409188D01*
X120140820Y-113445498D01*
X120030506Y-113504463D01*
X119933815Y-113583815D01*
X119854463Y-113680506D01*
X119795498Y-113790820D01*
X119792187Y-113801735D01*
X119745422Y-113754970D01*
X119629474Y-113870918D01*
X119545792Y-113616739D01*
X119273225Y-113485842D01*
X118980358Y-113410635D01*
X118678447Y-113394009D01*
X118379093Y-113436603D01*
X118093801Y-113536778D01*
X117944208Y-113616739D01*
X117860525Y-113870920D01*
X117311737Y-113870920D01*
X117183505Y-113742688D01*
X116932095Y-113574701D01*
X116652743Y-113458989D01*
X116356184Y-113400000D01*
X116053816Y-113400000D01*
X115757257Y-113458989D01*
X115477905Y-113574701D01*
X115226495Y-113742688D01*
X115012688Y-113956495D01*
X114844701Y-114207905D01*
X114728989Y-114487257D01*
X114670000Y-114783816D01*
X113055000Y-114783816D01*
X113055000Y-111155562D01*
X113246426Y-111234853D01*
X113523665Y-111290000D01*
X113806335Y-111290000D01*
X114083574Y-111234853D01*
X114344727Y-111126680D01*
X114579759Y-110969637D01*
X114779637Y-110769759D01*
X114936680Y-110534727D01*
X115044853Y-110273574D01*
X115100000Y-109996335D01*
X115100000Y-109713665D01*
X115044853Y-109436426D01*
X114965562Y-109245000D01*
X122524438Y-109245000D01*
X122445147Y-109436426D01*
G37*
X122445147Y-109436426D02*
X122390000Y-109713665D01*
X122390000Y-109996335D01*
X122445147Y-110273574D01*
X122553320Y-110534727D01*
X122710363Y-110769759D01*
X122910241Y-110969637D01*
X123145273Y-111126680D01*
X123406426Y-111234853D01*
X123683665Y-111290000D01*
X123966335Y-111290000D01*
X124243574Y-111234853D01*
X124504727Y-111126680D01*
X124739759Y-110969637D01*
X124939637Y-110769759D01*
X125016644Y-110654509D01*
X125565000Y-110654509D01*
X125565000Y-111595492D01*
X125585764Y-111806309D01*
X125667818Y-112076808D01*
X125801068Y-112326101D01*
X125980393Y-112544608D01*
X126198900Y-112723932D01*
X126448193Y-112857182D01*
X126718692Y-112939236D01*
X127000000Y-112966943D01*
X127281309Y-112939236D01*
X127551808Y-112857182D01*
X127801101Y-112723932D01*
X128019608Y-112544608D01*
X128198932Y-112326101D01*
X128267265Y-112198259D01*
X128417399Y-112427839D01*
X128615105Y-112629500D01*
X128848354Y-112788715D01*
X129108182Y-112899367D01*
X129190961Y-112916904D01*
X129413000Y-112794915D01*
X129413000Y-111252000D01*
X129393000Y-111252000D01*
X129393000Y-110998000D01*
X129413000Y-110998000D01*
X129413000Y-109455085D01*
X129667000Y-109455085D01*
X129667000Y-110998000D01*
X129687000Y-110998000D01*
X129687000Y-111252000D01*
X129667000Y-111252000D01*
X129667000Y-112794915D01*
X129889039Y-112916904D01*
X129971818Y-112899367D01*
X130231646Y-112788715D01*
X130464895Y-112629500D01*
X130662601Y-112427839D01*
X130812735Y-112198259D01*
X130881068Y-112326101D01*
X131060393Y-112544608D01*
X131278900Y-112723932D01*
X131528193Y-112857182D01*
X131798692Y-112939236D01*
X132080000Y-112966943D01*
X132361309Y-112939236D01*
X132631808Y-112857182D01*
X132881101Y-112723932D01*
X133099608Y-112544608D01*
X133278932Y-112326101D01*
X133347265Y-112198259D01*
X133497399Y-112427839D01*
X133695105Y-112629500D01*
X133928354Y-112788715D01*
X134188182Y-112899367D01*
X134270961Y-112916904D01*
X134493000Y-112794915D01*
X134493000Y-111252000D01*
X134473000Y-111252000D01*
X134473000Y-110998000D01*
X134493000Y-110998000D01*
X134493000Y-109455085D01*
X134747000Y-109455085D01*
X134747000Y-110998000D01*
X134767000Y-110998000D01*
X134767000Y-111252000D01*
X134747000Y-111252000D01*
X134747000Y-112794915D01*
X134969039Y-112916904D01*
X135051818Y-112899367D01*
X135311646Y-112788715D01*
X135544895Y-112629500D01*
X135742601Y-112427839D01*
X135892735Y-112198259D01*
X135961068Y-112326101D01*
X136140393Y-112544608D01*
X136358900Y-112723932D01*
X136608193Y-112857182D01*
X136878692Y-112939236D01*
X137160000Y-112966943D01*
X137441309Y-112939236D01*
X137711808Y-112857182D01*
X137961101Y-112723932D01*
X138179608Y-112544608D01*
X138358932Y-112326101D01*
X138427265Y-112198259D01*
X138577399Y-112427839D01*
X138775105Y-112629500D01*
X139008354Y-112788715D01*
X139268182Y-112899367D01*
X139350961Y-112916904D01*
X139573000Y-112794915D01*
X139573000Y-111252000D01*
X139553000Y-111252000D01*
X139553000Y-110998000D01*
X139573000Y-110998000D01*
X139573000Y-109455085D01*
X139827000Y-109455085D01*
X139827000Y-110998000D01*
X139847000Y-110998000D01*
X139847000Y-111252000D01*
X139827000Y-111252000D01*
X139827000Y-112794915D01*
X140049039Y-112916904D01*
X140131818Y-112899367D01*
X140391646Y-112788715D01*
X140624895Y-112629500D01*
X140822601Y-112427839D01*
X140972735Y-112198259D01*
X141041068Y-112326101D01*
X141220393Y-112544608D01*
X141438900Y-112723932D01*
X141688193Y-112857182D01*
X141958692Y-112939236D01*
X142240000Y-112966943D01*
X142521309Y-112939236D01*
X142791808Y-112857182D01*
X143041101Y-112723932D01*
X143259608Y-112544608D01*
X143438932Y-112326101D01*
X143572182Y-112076808D01*
X143654236Y-111806309D01*
X143675000Y-111595491D01*
X143675000Y-111545000D01*
X144561928Y-111545000D01*
X144561928Y-113245000D01*
X144574188Y-113369482D01*
X144610498Y-113489180D01*
X144669463Y-113599494D01*
X144748815Y-113696185D01*
X144845506Y-113775537D01*
X144955820Y-113834502D01*
X145028380Y-113856513D01*
X144896525Y-113988368D01*
X144734010Y-114231589D01*
X144622068Y-114501842D01*
X144565000Y-114788740D01*
X144565000Y-115081260D01*
X144622068Y-115368158D01*
X144734010Y-115638411D01*
X144896525Y-115881632D01*
X145103368Y-116088475D01*
X145285534Y-116210195D01*
X145168645Y-116279822D01*
X144952412Y-116474731D01*
X144778359Y-116708080D01*
X144653175Y-116970901D01*
X144608524Y-117118110D01*
X144729845Y-117348000D01*
X145923000Y-117348000D01*
X145923000Y-117328000D01*
X146177000Y-117328000D01*
X146177000Y-117348000D01*
X146197000Y-117348000D01*
X146197000Y-117602000D01*
X146177000Y-117602000D01*
X146177000Y-118795814D01*
X146406891Y-118916481D01*
X146681252Y-118819157D01*
X146931355Y-118670178D01*
X147147588Y-118475269D01*
X147318900Y-118245594D01*
X147436525Y-118421632D01*
X147643368Y-118628475D01*
X147886589Y-118790990D01*
X148156842Y-118902932D01*
X148443740Y-118960000D01*
X148736260Y-118960000D01*
X149023158Y-118902932D01*
X149293411Y-118790990D01*
X149536632Y-118628475D01*
X149743475Y-118421632D01*
X149905990Y-118178411D01*
X150017932Y-117908158D01*
X150075000Y-117621260D01*
X150075000Y-117328740D01*
X150017932Y-117041842D01*
X149905990Y-116771589D01*
X149743475Y-116528368D01*
X149536632Y-116321525D01*
X149354466Y-116199805D01*
X149471355Y-116130178D01*
X149687588Y-115935269D01*
X149861641Y-115701920D01*
X149986825Y-115439099D01*
X150031476Y-115291890D01*
X149910155Y-115062000D01*
X148717000Y-115062000D01*
X148717000Y-115082000D01*
X148463000Y-115082000D01*
X148463000Y-115062000D01*
X148443000Y-115062000D01*
X148443000Y-114808000D01*
X148463000Y-114808000D01*
X148463000Y-114788000D01*
X148717000Y-114788000D01*
X148717000Y-114808000D01*
X149910155Y-114808000D01*
X150031476Y-114578110D01*
X149986825Y-114430901D01*
X149861641Y-114168080D01*
X149687588Y-113934731D01*
X149603534Y-113858966D01*
X149684180Y-113834502D01*
X149794494Y-113775537D01*
X149891185Y-113696185D01*
X149970537Y-113599494D01*
X150029502Y-113489180D01*
X150065812Y-113369482D01*
X150078072Y-113245000D01*
X150078072Y-111545000D01*
X150065812Y-111420518D01*
X150029502Y-111300820D01*
X149970537Y-111190506D01*
X149891185Y-111093815D01*
X149794494Y-111014463D01*
X149684180Y-110955498D01*
X149564482Y-110919188D01*
X149440000Y-110906928D01*
X147740000Y-110906928D01*
X147615518Y-110919188D01*
X147495820Y-110955498D01*
X147385506Y-111014463D01*
X147320000Y-111068222D01*
X147254494Y-111014463D01*
X147144180Y-110955498D01*
X147024482Y-110919188D01*
X146900000Y-110906928D01*
X145200000Y-110906928D01*
X145075518Y-110919188D01*
X144955820Y-110955498D01*
X144845506Y-111014463D01*
X144748815Y-111093815D01*
X144669463Y-111190506D01*
X144610498Y-111300820D01*
X144574188Y-111420518D01*
X144561928Y-111545000D01*
X143675000Y-111545000D01*
X143675000Y-110654508D01*
X143654236Y-110443691D01*
X143572182Y-110173192D01*
X143438932Y-109923899D01*
X143259607Y-109705392D01*
X143041100Y-109526068D01*
X142791807Y-109392818D01*
X142521308Y-109310764D01*
X142240000Y-109283057D01*
X141958691Y-109310764D01*
X141688192Y-109392818D01*
X141438899Y-109526068D01*
X141220392Y-109705393D01*
X141041068Y-109923900D01*
X140972735Y-110051742D01*
X140822601Y-109822161D01*
X140624895Y-109620500D01*
X140391646Y-109461285D01*
X140131818Y-109350633D01*
X140049039Y-109333096D01*
X139827000Y-109455085D01*
X139573000Y-109455085D01*
X139350961Y-109333096D01*
X139268182Y-109350633D01*
X139008354Y-109461285D01*
X138775105Y-109620500D01*
X138577399Y-109822161D01*
X138427265Y-110051741D01*
X138358932Y-109923899D01*
X138179607Y-109705392D01*
X137961100Y-109526068D01*
X137711807Y-109392818D01*
X137441308Y-109310764D01*
X137160000Y-109283057D01*
X136878691Y-109310764D01*
X136608192Y-109392818D01*
X136358899Y-109526068D01*
X136140392Y-109705393D01*
X135961068Y-109923900D01*
X135892735Y-110051742D01*
X135742601Y-109822161D01*
X135544895Y-109620500D01*
X135311646Y-109461285D01*
X135051818Y-109350633D01*
X134969039Y-109333096D01*
X134747000Y-109455085D01*
X134493000Y-109455085D01*
X134270961Y-109333096D01*
X134188182Y-109350633D01*
X133928354Y-109461285D01*
X133695105Y-109620500D01*
X133497399Y-109822161D01*
X133347265Y-110051741D01*
X133278932Y-109923899D01*
X133099607Y-109705392D01*
X132881100Y-109526068D01*
X132631807Y-109392818D01*
X132361308Y-109310764D01*
X132080000Y-109283057D01*
X131798691Y-109310764D01*
X131528192Y-109392818D01*
X131278899Y-109526068D01*
X131060392Y-109705393D01*
X130881068Y-109923900D01*
X130812735Y-110051742D01*
X130662601Y-109822161D01*
X130464895Y-109620500D01*
X130231646Y-109461285D01*
X129971818Y-109350633D01*
X129889039Y-109333096D01*
X129667000Y-109455085D01*
X129413000Y-109455085D01*
X129190961Y-109333096D01*
X129108182Y-109350633D01*
X128848354Y-109461285D01*
X128615105Y-109620500D01*
X128417399Y-109822161D01*
X128267265Y-110051741D01*
X128198932Y-109923899D01*
X128019607Y-109705392D01*
X127801100Y-109526068D01*
X127551807Y-109392818D01*
X127281308Y-109310764D01*
X127000000Y-109283057D01*
X126718691Y-109310764D01*
X126448192Y-109392818D01*
X126198899Y-109526068D01*
X125980392Y-109705393D01*
X125801068Y-109923900D01*
X125667818Y-110173193D01*
X125585764Y-110443692D01*
X125565000Y-110654509D01*
X125016644Y-110654509D01*
X125096680Y-110534727D01*
X125204853Y-110273574D01*
X125260000Y-109996335D01*
X125260000Y-109713665D01*
X125204853Y-109436426D01*
X125125562Y-109245000D01*
X150462725Y-109245000D01*
X150469513Y-109245666D01*
X150470000Y-109250301D01*
X150470001Y-120617715D01*
X150469335Y-120624513D01*
X150464699Y-120625000D01*
X125125562Y-120625000D01*
X125204853Y-120433574D01*
X125260000Y-120156335D01*
X125260000Y-119873665D01*
X125204853Y-119596426D01*
X125096680Y-119335273D01*
X124939637Y-119100241D01*
X124739759Y-118900363D01*
X124504727Y-118743320D01*
X124243574Y-118635147D01*
X123966335Y-118580000D01*
X123683665Y-118580000D01*
X123406426Y-118635147D01*
X123145273Y-118743320D01*
X122910241Y-118900363D01*
X122710363Y-119100241D01*
X122553320Y-119335273D01*
X122445147Y-119596426D01*
X122390000Y-119873665D01*
X122390000Y-120156335D01*
X122445147Y-120433574D01*
X122524438Y-120625000D01*
X114965562Y-120625000D01*
X115044853Y-120433574D01*
X115100000Y-120156335D01*
X115100000Y-119873665D01*
X115044853Y-119596426D01*
X114936680Y-119335273D01*
X114779637Y-119100241D01*
X114579759Y-118900363D01*
X114344727Y-118743320D01*
X114083574Y-118635147D01*
X113806335Y-118580000D01*
X113523665Y-118580000D01*
X113246426Y-118635147D01*
X113055000Y-118714438D01*
X113055000Y-114783816D01*
X114670000Y-114783816D01*
X114670000Y-115086184D01*
X114728989Y-115382743D01*
X114844701Y-115662095D01*
X115012688Y-115913505D01*
X115226495Y-116127312D01*
X115477905Y-116295299D01*
X115757257Y-116411011D01*
X116053816Y-116470000D01*
X116356184Y-116470000D01*
X116652743Y-116411011D01*
X116932095Y-116295299D01*
X117183505Y-116127312D01*
X117397312Y-115913505D01*
X117499951Y-115759895D01*
X117680920Y-115819475D01*
X118565395Y-114935000D01*
X117680920Y-114050525D01*
X117499951Y-114110105D01*
X117397312Y-113956495D01*
X117311737Y-113870920D01*
X117860525Y-113870920D01*
X118745000Y-114755395D01*
X118759143Y-114741253D01*
X118938748Y-114920858D01*
X118924605Y-114935000D01*
X118938748Y-114949143D01*
X118759143Y-115128748D01*
X118745000Y-115114605D01*
X117860525Y-115999080D01*
X117944208Y-116253261D01*
X118216775Y-116384158D01*
X118509642Y-116459365D01*
X118811553Y-116475991D01*
X119110907Y-116433397D01*
X119396199Y-116333222D01*
X119545792Y-116253261D01*
X119629474Y-115999082D01*
X119745422Y-116115030D01*
X119792187Y-116068265D01*
X119795498Y-116079180D01*
X119854463Y-116189494D01*
X119933815Y-116286185D01*
X120030506Y-116365537D01*
X120140820Y-116424502D01*
X120260518Y-116460812D01*
X120385000Y-116473072D01*
X122185000Y-116473072D01*
X122309482Y-116460812D01*
X122429180Y-116424502D01*
X122539494Y-116365537D01*
X122636185Y-116286185D01*
X122715537Y-116189494D01*
X122761737Y-116103061D01*
X124695000Y-116103061D01*
X124695000Y-116306939D01*
X124734774Y-116506898D01*
X124812795Y-116695256D01*
X124926063Y-116864774D01*
X125070226Y-117008937D01*
X125239744Y-117122205D01*
X125428102Y-117200226D01*
X125628061Y-117240000D01*
X125643007Y-117240000D01*
X125610498Y-117300820D01*
X125574188Y-117420518D01*
X125561928Y-117545000D01*
X125561928Y-119945000D01*
X125574188Y-120069482D01*
X125610498Y-120189180D01*
X125669463Y-120299494D01*
X125748815Y-120396185D01*
X125845506Y-120475537D01*
X125955820Y-120534502D01*
X126075518Y-120570812D01*
X126200000Y-120583072D01*
X127800000Y-120583072D01*
X127924482Y-120570812D01*
X128044180Y-120534502D01*
X128154494Y-120475537D01*
X128251185Y-120396185D01*
X128330537Y-120299494D01*
X128389502Y-120189180D01*
X128425812Y-120069482D01*
X128427581Y-120051517D01*
X128520393Y-120164608D01*
X128738900Y-120343932D01*
X128988193Y-120477182D01*
X129258692Y-120559236D01*
X129540000Y-120586943D01*
X129821309Y-120559236D01*
X130091808Y-120477182D01*
X130341101Y-120343932D01*
X130559608Y-120164608D01*
X130738932Y-119946101D01*
X130810000Y-119813142D01*
X130881068Y-119946101D01*
X131060393Y-120164608D01*
X131278900Y-120343932D01*
X131528193Y-120477182D01*
X131798692Y-120559236D01*
X132080000Y-120586943D01*
X132361309Y-120559236D01*
X132631808Y-120477182D01*
X132881101Y-120343932D01*
X133099608Y-120164608D01*
X133278932Y-119946101D01*
X133350000Y-119813142D01*
X133421068Y-119946101D01*
X133600393Y-120164608D01*
X133818900Y-120343932D01*
X134068193Y-120477182D01*
X134338692Y-120559236D01*
X134620000Y-120586943D01*
X134901309Y-120559236D01*
X135171808Y-120477182D01*
X135421101Y-120343932D01*
X135639608Y-120164608D01*
X135818932Y-119946101D01*
X135887265Y-119818259D01*
X136037399Y-120047839D01*
X136235105Y-120249500D01*
X136468354Y-120408715D01*
X136728182Y-120519367D01*
X136810961Y-120536904D01*
X137033000Y-120414915D01*
X137033000Y-118872000D01*
X137013000Y-118872000D01*
X137013000Y-118618000D01*
X137033000Y-118618000D01*
X137033000Y-117075085D01*
X137287000Y-117075085D01*
X137287000Y-118618000D01*
X137307000Y-118618000D01*
X137307000Y-118872000D01*
X137287000Y-118872000D01*
X137287000Y-120414915D01*
X137509039Y-120536904D01*
X137591818Y-120519367D01*
X137851646Y-120408715D01*
X138084895Y-120249500D01*
X138282601Y-120047839D01*
X138432735Y-119818259D01*
X138501068Y-119946101D01*
X138680393Y-120164608D01*
X138898900Y-120343932D01*
X139148193Y-120477182D01*
X139418692Y-120559236D01*
X139700000Y-120586943D01*
X139981309Y-120559236D01*
X140251808Y-120477182D01*
X140501101Y-120343932D01*
X140719608Y-120164608D01*
X140898932Y-119946101D01*
X140967265Y-119818259D01*
X141117399Y-120047839D01*
X141315105Y-120249500D01*
X141548354Y-120408715D01*
X141808182Y-120519367D01*
X141890961Y-120536904D01*
X142113000Y-120414915D01*
X142113000Y-118872000D01*
X142367000Y-118872000D01*
X142367000Y-120414915D01*
X142589039Y-120536904D01*
X142671818Y-120519367D01*
X142931646Y-120408715D01*
X143164895Y-120249500D01*
X143362601Y-120047839D01*
X143517166Y-119811483D01*
X143622650Y-119549514D01*
X143675000Y-119272000D01*
X143675000Y-118872000D01*
X142367000Y-118872000D01*
X142113000Y-118872000D01*
X142093000Y-118872000D01*
X142093000Y-118618000D01*
X142113000Y-118618000D01*
X142113000Y-117075085D01*
X142367000Y-117075085D01*
X142367000Y-118618000D01*
X143675000Y-118618000D01*
X143675000Y-118218000D01*
X143622650Y-117940486D01*
X143578923Y-117831890D01*
X144608524Y-117831890D01*
X144653175Y-117979099D01*
X144778359Y-118241920D01*
X144952412Y-118475269D01*
X145168645Y-118670178D01*
X145418748Y-118819157D01*
X145693109Y-118916481D01*
X145923000Y-118795814D01*
X145923000Y-117602000D01*
X144729845Y-117602000D01*
X144608524Y-117831890D01*
X143578923Y-117831890D01*
X143517166Y-117678517D01*
X143362601Y-117442161D01*
X143164895Y-117240500D01*
X142931646Y-117081285D01*
X142671818Y-116970633D01*
X142589039Y-116953096D01*
X142367000Y-117075085D01*
X142113000Y-117075085D01*
X141890961Y-116953096D01*
X141808182Y-116970633D01*
X141548354Y-117081285D01*
X141315105Y-117240500D01*
X141117399Y-117442161D01*
X140967265Y-117671741D01*
X140898932Y-117543899D01*
X140719607Y-117325392D01*
X140501100Y-117146068D01*
X140251807Y-117012818D01*
X139981308Y-116930764D01*
X139700000Y-116903057D01*
X139418691Y-116930764D01*
X139148192Y-117012818D01*
X138898899Y-117146068D01*
X138680392Y-117325393D01*
X138501068Y-117543900D01*
X138432735Y-117671742D01*
X138282601Y-117442161D01*
X138084895Y-117240500D01*
X137851646Y-117081285D01*
X137591818Y-116970633D01*
X137509039Y-116953096D01*
X137287000Y-117075085D01*
X137033000Y-117075085D01*
X136810961Y-116953096D01*
X136728182Y-116970633D01*
X136468354Y-117081285D01*
X136235105Y-117240500D01*
X136037399Y-117442161D01*
X135887265Y-117671741D01*
X135818932Y-117543899D01*
X135639607Y-117325392D01*
X135421100Y-117146068D01*
X135171807Y-117012818D01*
X134901308Y-116930764D01*
X134620000Y-116903057D01*
X134338691Y-116930764D01*
X134068192Y-117012818D01*
X133818899Y-117146068D01*
X133600392Y-117325393D01*
X133421068Y-117543900D01*
X133350000Y-117676858D01*
X133278932Y-117543899D01*
X133099607Y-117325392D01*
X132881100Y-117146068D01*
X132631807Y-117012818D01*
X132361308Y-116930764D01*
X132080000Y-116903057D01*
X131798691Y-116930764D01*
X131528192Y-117012818D01*
X131278899Y-117146068D01*
X131060392Y-117325393D01*
X130881068Y-117543900D01*
X130810000Y-117676858D01*
X130738932Y-117543899D01*
X130559607Y-117325392D01*
X130341100Y-117146068D01*
X130091807Y-117012818D01*
X129821308Y-116930764D01*
X129540000Y-116903057D01*
X129258691Y-116930764D01*
X128988192Y-117012818D01*
X128738899Y-117146068D01*
X128520392Y-117325393D01*
X128427581Y-117438483D01*
X128425812Y-117420518D01*
X128389502Y-117300820D01*
X128356993Y-117240000D01*
X128371939Y-117240000D01*
X128571898Y-117200226D01*
X128760256Y-117122205D01*
X128929774Y-117008937D01*
X129073937Y-116864774D01*
X129187205Y-116695256D01*
X129265226Y-116506898D01*
X129305000Y-116306939D01*
X129305000Y-116103061D01*
X129265226Y-115903102D01*
X129187205Y-115714744D01*
X129073937Y-115545226D01*
X128929774Y-115401063D01*
X128760256Y-115287795D01*
X128571898Y-115209774D01*
X128371939Y-115170000D01*
X128168061Y-115170000D01*
X127968102Y-115209774D01*
X127779744Y-115287795D01*
X127610226Y-115401063D01*
X127566289Y-115445000D01*
X126433711Y-115445000D01*
X126389774Y-115401063D01*
X126220256Y-115287795D01*
X126031898Y-115209774D01*
X125831939Y-115170000D01*
X125628061Y-115170000D01*
X125428102Y-115209774D01*
X125239744Y-115287795D01*
X125070226Y-115401063D01*
X124926063Y-115545226D01*
X124812795Y-115714744D01*
X124734774Y-115903102D01*
X124695000Y-116103061D01*
X122761737Y-116103061D01*
X122774502Y-116079180D01*
X122810812Y-115959482D01*
X122823072Y-115835000D01*
X122823072Y-114035000D01*
X122810812Y-113910518D01*
X122774502Y-113790820D01*
X122715537Y-113680506D01*
X122636185Y-113583815D01*
X122539494Y-113504463D01*
X122429180Y-113445498D01*
X122309482Y-113409188D01*
X122185000Y-113396928D01*
X120385000Y-113396928D01*
X120260518Y-113409188D01*
X120140820Y-113445498D01*
X120030506Y-113504463D01*
X119933815Y-113583815D01*
X119854463Y-113680506D01*
X119795498Y-113790820D01*
X119792187Y-113801735D01*
X119745422Y-113754970D01*
X119629474Y-113870918D01*
X119545792Y-113616739D01*
X119273225Y-113485842D01*
X118980358Y-113410635D01*
X118678447Y-113394009D01*
X118379093Y-113436603D01*
X118093801Y-113536778D01*
X117944208Y-113616739D01*
X117860525Y-113870920D01*
X117311737Y-113870920D01*
X117183505Y-113742688D01*
X116932095Y-113574701D01*
X116652743Y-113458989D01*
X116356184Y-113400000D01*
X116053816Y-113400000D01*
X115757257Y-113458989D01*
X115477905Y-113574701D01*
X115226495Y-113742688D01*
X115012688Y-113956495D01*
X114844701Y-114207905D01*
X114728989Y-114487257D01*
X114670000Y-114783816D01*
X113055000Y-114783816D01*
X113055000Y-111155562D01*
X113246426Y-111234853D01*
X113523665Y-111290000D01*
X113806335Y-111290000D01*
X114083574Y-111234853D01*
X114344727Y-111126680D01*
X114579759Y-110969637D01*
X114779637Y-110769759D01*
X114936680Y-110534727D01*
X115044853Y-110273574D01*
X115100000Y-109996335D01*
X115100000Y-109713665D01*
X115044853Y-109436426D01*
X114965562Y-109245000D01*
X122524438Y-109245000D01*
X122445147Y-109436426D01*
M02*
