G04 #@! TF.GenerationSoftware,KiCad,Pcbnew,(5.1.5)-3*
G04 #@! TF.CreationDate,2020-10-17T23:47:23+02:00*
G04 #@! TF.ProjectId,C64 IRQ LED,43363420-4952-4512-904c-45442e6b6963,rev?*
G04 #@! TF.SameCoordinates,Original*
G04 #@! TF.FileFunction,Copper,L1,Top*
G04 #@! TF.FilePolarity,Positive*
%FSLAX46Y46*%
G04 Gerber Fmt 4.6, Leading zero omitted, Abs format (unit mm)*
G04 Created by KiCad (PCBNEW (5.1.5)-3) date 2020-10-17 23:47:23*
%MOMM*%
%LPD*%
G04 APERTURE LIST*
%ADD10C,1.800000*%
%ADD11R,1.800000X1.800000*%
%ADD12O,1.700000X1.700000*%
%ADD13R,1.700000X1.700000*%
%ADD14O,1.600000X1.600000*%
%ADD15C,1.600000*%
%ADD16O,1.600000X2.400000*%
%ADD17R,1.600000X2.400000*%
%ADD18C,0.800000*%
%ADD19C,0.250000*%
G04 APERTURE END LIST*
D10*
X116205000Y-114935000D03*
X118745000Y-114935000D03*
D11*
X121285000Y-114935000D03*
D12*
X148590000Y-117475000D03*
X148590000Y-114935000D03*
D13*
X148590000Y-112395000D03*
D14*
X113665000Y-120015000D03*
D15*
X123825000Y-120015000D03*
X123825000Y-109855000D03*
D14*
X113665000Y-109855000D03*
D16*
X127000000Y-111125000D03*
X142240000Y-118745000D03*
X129540000Y-111125000D03*
X139700000Y-118745000D03*
X132080000Y-111125000D03*
X137160000Y-118745000D03*
X134620000Y-111125000D03*
X134620000Y-118745000D03*
X137160000Y-111125000D03*
X132080000Y-118745000D03*
X139700000Y-111125000D03*
X129540000Y-118745000D03*
X142240000Y-111125000D03*
D17*
X127000000Y-118745000D03*
D12*
X146050000Y-117475000D03*
X146050000Y-114935000D03*
D13*
X146050000Y-112395000D03*
D18*
X125730000Y-116205000D03*
X128270000Y-116205000D03*
D19*
X116205000Y-114935000D02*
X114300000Y-114935000D01*
X113665000Y-114300000D02*
X113665000Y-109855000D01*
X114300000Y-114935000D02*
X113665000Y-114300000D01*
X121285000Y-116085000D02*
X120650000Y-116720000D01*
X121285000Y-114935000D02*
X121285000Y-116085000D01*
X120650000Y-116720000D02*
X114420000Y-116720000D01*
X113665000Y-117475000D02*
X113665000Y-120015000D01*
X114420000Y-116720000D02*
X113665000Y-117475000D01*
X147150000Y-112395000D02*
X147320000Y-112565000D01*
X146050000Y-112395000D02*
X147150000Y-112395000D01*
X147320000Y-112565000D02*
X147320000Y-116205000D01*
X147387919Y-117475000D02*
X147320000Y-117407081D01*
X148590000Y-117475000D02*
X147387919Y-117475000D01*
X147320000Y-117407081D02*
X147320000Y-116205000D01*
X127000000Y-109675000D02*
X127455000Y-109220000D01*
X127000000Y-111125000D02*
X127000000Y-109675000D01*
X127455000Y-109220000D02*
X147955000Y-109220000D01*
X148590000Y-109855000D02*
X148590000Y-112395000D01*
X147955000Y-109220000D02*
X148590000Y-109855000D01*
X123825000Y-120015000D02*
X124460000Y-120650000D01*
X134620000Y-120195000D02*
X134620000Y-118745000D01*
X134165000Y-120650000D02*
X134620000Y-120195000D01*
X124460000Y-120650000D02*
X134165000Y-120650000D01*
X129540000Y-118745000D02*
X132080000Y-118745000D01*
X123825000Y-109855000D02*
X123825000Y-115570000D01*
X123825000Y-115570000D02*
X124460000Y-116205000D01*
X124460000Y-116205000D02*
X125730000Y-116205000D01*
X128270000Y-116205000D02*
X128905000Y-116205000D01*
X129540000Y-116840000D02*
X129540000Y-118745000D01*
X128905000Y-116205000D02*
X129540000Y-116840000D01*
X146050000Y-114935000D02*
X127635000Y-114935000D01*
X127000000Y-115570000D02*
X127000000Y-118745000D01*
X127635000Y-114935000D02*
X127000000Y-115570000D01*
M02*
